<?xml version="1.0" ?><!DOCTYPE svg  PUBLIC '-//W3C//DTD SVG 1.0//EN'  'http://www.w3.org/TR/2001/REC-SVG-20010904/DTD/svg10.dtd'><svg enable-background="new 0 0 32 22" height="22" overflow="visible" viewBox="0 0 32 22" width="32" xml:space="preserve" xmlns="http://www.w3.org/2000/svg" xmlns:xlink="http://www.w3.org/1999/xlink"><g><g id="Piece_of_cheese_1_"><g id="Piece_of_cheese"><rect fill="#FED049" height="14" id="Lower" width="32" y="8"/><polygon fill="#FFE167" id="Upper" points="20,0 0,8 32,8 "/><g id="Holes"><path d="M16,6c-1.104,0-2,0.896-2,2h4C18,6.896,17.105,6,16,6z" fill="#FED049"/><path d="M16,10c-1.104,0-2-0.896-2-2h4C18,9.104,17.105,10,16,10z" fill="#F5B400"/><path d="M27,7c-0.553,0-1,0.448-1,1h2C28,7.448,27.553,7,27,7z" fill="#FED049"/><path d="M27,9c-0.553,0-1-0.448-1-1h2C28,8.552,27.553,9,27,9z" fill="#F5B400"/><circle cx="20" cy="3" fill="#FED049" r="1"/><circle cx="17" cy="16" fill="#F5B400" r="1"/><circle cx="4" cy="11" fill="#F5B400" r="1"/><circle cx="7" cy="19" fill="#F5B400" r="1"/><circle cx="25" cy="16" fill="#F5B400" r="2"/></g></g></g></g></svg>